<svg xmlns="http://www.w3.org/2000/svg" viewBox="0 0 64 64" fill="none">
  <!-- 태양 광선 -->
  <line x1="32" y1="3"  x2="32" y2="8"  stroke="#fbbf24" stroke-width="3" stroke-linecap="round"/>
  <line x1="46" y1="6"  x2="43" y2="10" stroke="#fbbf24" stroke-width="3" stroke-linecap="round"/>
  <line x1="57" y1="18" x2="52" y2="21" stroke="#fbbf24" stroke-width="3" stroke-linecap="round"/>
  <line x1="61" y1="33" x2="56" y2="33" stroke="#fbbf24" stroke-width="3" stroke-linecap="round"/>
  <line x1="57" y1="48" x2="52" y2="45" stroke="#fbbf24" stroke-width="3" stroke-linecap="round"/>
  <line x1="46" y1="59" x2="43" y2="55" stroke="#fbbf24" stroke-width="3" stroke-linecap="round"/>
  <line x1="18" y1="6"  x2="21" y2="10" stroke="#fbbf24" stroke-width="3" stroke-linecap="round"/>
  <line x1="7"  y1="18" x2="12" y2="21" stroke="#fbbf24" stroke-width="3" stroke-linecap="round"/>
  <line x1="3"  y1="33" x2="8"  y2="33" stroke="#fbbf24" stroke-width="3" stroke-linecap="round"/>
  <line x1="7"  y1="48" x2="12" y2="45" stroke="#fbbf24" stroke-width="3" stroke-linecap="round"/>

  <!-- 원형 일기장 -->
  <circle cx="32" cy="33" r="20" fill="#fef9c3" stroke="#f59e0b" stroke-width="2"/>
  <line x1="20" y1="27" x2="44" y2="27" stroke="#fcd34d" stroke-width="1.5" stroke-linecap="round"/>
  <line x1="20" y1="33" x2="44" y2="33" stroke="#fcd34d" stroke-width="1.5" stroke-linecap="round"/>
  <!-- 마지막 줄: 반쯤 쓰여진 -->
  <line x1="20" y1="39" x2="37" y2="39" stroke="#fcd34d" stroke-width="1.5" stroke-linecap="round"/>

  <!-- 연필 (45도, 팁(37,39)에서 오른쪽 위로) -->
  <!-- 나무/팁 -->
  <polygon points="37,39 43,37 39,33" fill="#92400e"/>
  <!-- 몸통 -->
  <polygon points="43,37 39,33 51,21 55,25" fill="#fde68a"/>
  <!-- 페룰 -->
  <polygon points="55,25 51,21 53,19 57,23" fill="#9ca3af"/>
  <!-- 지우개 -->
  <polygon points="57,23 53,19 56,16 60,20" fill="#fca5a5"/>
</svg>